<svg xmlns="http://www.w3.org/2000/svg" width="24" height="24" viewBox="0 0 48 48"><g><path fill="#4285F4" d="M43.611 20.083H42V20H24v8h11.303C34.73 32.082 30.036 35 24 35c-6.627 0-12-5.373-12-12s5.373-12 12-12c2.761 0 5.292.99 7.292 2.617l6.849-6.849C34.583 5.163 29.627 3 24 3 12.954 3 4 11.954 4 23s8.954 20 20 20c11.045 0 19.799-7.954 19.799-20 0-1.341-.138-2.651-.388-3.917z"/><path fill="#34A853" d="M6.306 14.691l6.571 4.819C14.655 16.108 18.961 13 24 13c2.761 0 5.292.99 7.292 2.617l6.849-6.849C34.583 5.163 29.627 3 24 3c-7.732 0-14.41 4.41-17.694 11.691z"/><path fill="#FBBC05" d="M24 43c5.922 0 10.872-1.97 14.496-5.354l-6.667-5.453C29.635 33.885 27.02 35 24 35c-6.012 0-10.99-4.07-12.803-9.572l-6.563 5.061C7.58 39.02 15.21 43 24 43z"/><path fill="#EA4335" d="M43.611 20.083H42V20H24v8h11.303c-1.13 3.02-4.03 7.082-11.303 7.082-6.012 0-10.99-4.07-12.803-9.572l-6.563 5.061C7.58 39.02 15.21 43 24 43c7.797 0 15.428-3.98 19.799-11.799C44.861 27.651 45 26.341 45 25c0-1.341-.139-2.651-.389-3.917z"/></g></svg>
